<?xml version="1.0" encoding="utf-8"?>
<!-- Generator: Adobe Illustrator 27.0.0, SVG Export Plug-In . SVG Version: 6.00 Build 0)  -->
<svg version="1.1" xmlns="http://www.w3.org/2000/svg" xmlns:xlink="http://www.w3.org/1999/xlink" x="0px" y="0px"
	 viewBox="0 0 613.1 463.3" style="enable-background:new 0 0 613.1 463.3;" xml:space="preserve">
<style type="text/css">
	.st0{fill:url(#SVGID_1_);}
	.st1{fill:url(#SVGID_00000161593016260677512470000006698394712443470738_);}
	.st2{fill:url(#SVGID_00000040569270741113627390000014185650220948789930_);}
	.st3{fill:url(#SVGID_00000135677909649654697160000004484671337214804657_);}
	.st4{fill:url(#SVGID_00000094598015002985179380000011442934446998633358_);}
	.st5{fill:url(#SVGID_00000050640005823355172560000007928360370311381126_);}
	.st6{fill:url(#SVGID_00000059287374212875275350000004492353543799662731_);}
	.st7{fill:url(#SVGID_00000093890854687496909170000005900744389485905310_);}
	.st8{fill:url(#SVGID_00000042727001976372749750000002073949644360274052_);}
	.st9{fill:url(#SVGID_00000084507969317756770230000004381991991112367762_);}
	.st10{fill:url(#SVGID_00000071524122095539954980000018085805232012463503_);}
	.st11{fill:url(#SVGID_00000031180885196378944320000003846795131822566304_);}
	.st12{fill:url(#SVGID_00000158731647657112312520000005429652995822763956_);}
	.st13{fill:url(#SVGID_00000057115234912177033090000012904029096332631981_);}
	.st14{fill:url(#SVGID_00000056407593386716839080000017857768077265127327_);}
	.st15{fill:url(#SVGID_00000110448577102458762120000016789364020306429321_);}
	.st16{fill:url(#SVGID_00000075138716650635235300000002769982365599966340_);}
	.st17{fill:url(#SVGID_00000005960951072469560350000002061234901679554488_);}
	.st18{opacity:0.5;fill:url(#SVGID_00000059273665012986883900000007754472297441244066_);}
	.st19{fill:url(#SVGID_00000147190484554333811010000004757508490084105643_);}
	.st20{fill:url(#SVGID_00000155115103901867113120000010667747505602268324_);}
	.st21{fill:url(#SVGID_00000143579581756883127100000000680583455823948472_);}
	.st22{fill:url(#SVGID_00000121971777646507835880000008811490093350380467_);}
	.st23{fill:#00629B;}
	.st24{fill:#414042;}
	.st25{fill:#76BC43;}
	.st26{fill:url(#SVGID_00000174567261055772773000000003891556534841975944_);}
	.st27{fill:url(#SVGID_00000138552891998428059310000004619590922371134345_);}
	.st28{fill:url(#SVGID_00000065058454021588599830000011430429160493034655_);}
	.st29{fill:url(#SVGID_00000043458932573258358890000005420818106751481768_);}
	.st30{fill:url(#SVGID_00000018222062190608623020000012898481730887271594_);}
	.st31{fill:#78BE20;}
	.st32{fill:none;}
	.st33{fill:url(#SVGID_00000126287985630141743660000015065418637795257220_);}
	.st34{fill:url(#SVGID_00000060722127764931173270000000669311592049694602_);}
	.st35{fill:url(#SVGID_00000155129198478623265260000016818192202314057090_);}
	.st36{fill:url(#SVGID_00000016067783208508227210000000768870573700743347_);}
	.st37{fill:url(#SVGID_00000071557580192611596820000005165522469449005992_);}
	.st38{fill:url(#SVGID_00000117652350399041339370000006632259632891973262_);}
	.st39{fill:#006394;}
</style>
<g id="Layer_1">
</g>
<g id="Layer_2">
</g>
<g id="Layer_3">
</g>
<g id="Layer_4">
</g>
<g id="Layer_5">
</g>
<g id="Layer_6">
</g>
<g id="Layer_7">
</g>
<g id="Layer_8">
</g>
<g id="Layer_9">
</g>
<g id="Layer_10">
</g>
<g id="Layer_11">
	<g>
		<linearGradient id="SVGID_1_" gradientUnits="userSpaceOnUse" x1="133.7587" y1="397.666" x2="585.5591" y2="397.666">
			<stop  offset="0" style="stop-color:#78BE20"/>
			<stop  offset="0.1201" style="stop-color:#75BC23"/>
			<stop  offset="0.2172" style="stop-color:#6BB42D"/>
			<stop  offset="0.3063" style="stop-color:#5AA73E"/>
			<stop  offset="0.3906" style="stop-color:#439556"/>
			<stop  offset="0.4707" style="stop-color:#257F75"/>
			<stop  offset="0.5481" style="stop-color:#01639A"/>
			<stop  offset="0.55" style="stop-color:#00629B"/>
			<stop  offset="0.9605" style="stop-color:#00629B"/>
			<stop  offset="1" style="stop-color:#00629B"/>
		</linearGradient>
		<path class="st0" d="M148.4,386.5c2.1,0,4.1,0.4,6.1,1.1l-1,3.6c-1.7-0.6-3.3-0.9-5.1-0.9c-4.6,0-6.5,3.8-6.5,7.3s1.9,7.3,6.5,7.3
			c1.7,0,3.4-0.3,5.1-0.8l1.1,3.7c-2.1,0.7-4,1-6.2,1c-7.1,0-11.2-5.1-11.2-11.2S141.2,386.5,148.4,386.5z"/>
		
			<linearGradient id="SVGID_00000135666579169844041960000004910013888740156803_" gradientUnits="userSpaceOnUse" x1="133.7587" y1="397.666" x2="585.5552" y2="397.666">
			<stop  offset="0" style="stop-color:#78BE20"/>
			<stop  offset="0.1201" style="stop-color:#75BC23"/>
			<stop  offset="0.2172" style="stop-color:#6BB42D"/>
			<stop  offset="0.3063" style="stop-color:#5AA73E"/>
			<stop  offset="0.3906" style="stop-color:#439556"/>
			<stop  offset="0.4707" style="stop-color:#257F75"/>
			<stop  offset="0.5481" style="stop-color:#01639A"/>
			<stop  offset="0.55" style="stop-color:#00629B"/>
			<stop  offset="0.9605" style="stop-color:#00629B"/>
			<stop  offset="1" style="stop-color:#00629B"/>
		</linearGradient>
		<path style="fill:url(#SVGID_00000135666579169844041960000004910013888740156803_);" d="M159.4,386.9h12.7v3.9h-8.2v4.9h7.6
			l-0.4,3.8h-7.2v5.2h8.5v3.9h-12.9V386.9z"/>
		
			<linearGradient id="SVGID_00000085942712648934316990000010955356979726294205_" gradientUnits="userSpaceOnUse" x1="133.7587" y1="397.4792" x2="585.5591" y2="397.4792">
			<stop  offset="0" style="stop-color:#78BE20"/>
			<stop  offset="0.1201" style="stop-color:#75BC23"/>
			<stop  offset="0.2172" style="stop-color:#6BB42D"/>
			<stop  offset="0.3063" style="stop-color:#5AA73E"/>
			<stop  offset="0.3906" style="stop-color:#439556"/>
			<stop  offset="0.4707" style="stop-color:#257F75"/>
			<stop  offset="0.5481" style="stop-color:#01639A"/>
			<stop  offset="0.55" style="stop-color:#00629B"/>
			<stop  offset="0.9605" style="stop-color:#00629B"/>
			<stop  offset="1" style="stop-color:#00629B"/>
		</linearGradient>
		<path style="fill:url(#SVGID_00000085942712648934316990000010955356979726294205_);" d="M177.2,386.9l4.4-0.4v18.1h8v3.9h-12.4
			V386.9z"/>
		
			<linearGradient id="SVGID_00000100373276043204825000000009181040623670424739_" gradientUnits="userSpaceOnUse" x1="133.7587" y1="397.666" x2="585.5552" y2="397.666">
			<stop  offset="0" style="stop-color:#78BE20"/>
			<stop  offset="0.1201" style="stop-color:#75BC23"/>
			<stop  offset="0.2172" style="stop-color:#6BB42D"/>
			<stop  offset="0.3063" style="stop-color:#5AA73E"/>
			<stop  offset="0.3906" style="stop-color:#439556"/>
			<stop  offset="0.4707" style="stop-color:#257F75"/>
			<stop  offset="0.5481" style="stop-color:#01639A"/>
			<stop  offset="0.55" style="stop-color:#00629B"/>
			<stop  offset="0.9605" style="stop-color:#00629B"/>
			<stop  offset="1" style="stop-color:#00629B"/>
		</linearGradient>
		<path style="fill:url(#SVGID_00000100373276043204825000000009181040623670424739_);" d="M194.2,386.9h12.7v3.9h-8.2v4.9h7.6
			l-0.4,3.8h-7.2v5.2h8.5v3.9h-12.9V386.9z"/>
		
			<linearGradient id="SVGID_00000160889912943965624610000011444484587715995283_" gradientUnits="userSpaceOnUse" x1="133.7587" y1="397.666" x2="585.5591" y2="397.666">
			<stop  offset="0" style="stop-color:#78BE20"/>
			<stop  offset="0.1201" style="stop-color:#75BC23"/>
			<stop  offset="0.2172" style="stop-color:#6BB42D"/>
			<stop  offset="0.3063" style="stop-color:#5AA73E"/>
			<stop  offset="0.3906" style="stop-color:#439556"/>
			<stop  offset="0.4707" style="stop-color:#257F75"/>
			<stop  offset="0.5481" style="stop-color:#01639A"/>
			<stop  offset="0.55" style="stop-color:#00629B"/>
			<stop  offset="0.9605" style="stop-color:#00629B"/>
			<stop  offset="1" style="stop-color:#00629B"/>
		</linearGradient>
		<path style="fill:url(#SVGID_00000160889912943965624610000011444484587715995283_);" d="M211.9,386.9h6.3c5,0,7.5,2.4,7.5,5.8
			c0,2-1,3.4-2.8,4.2c2.5,0.8,4,2.5,4,5c0,3.8-3,6.5-7.8,6.5h-7.1V386.9z M218.4,395.3c1.7,0,2.7-0.7,2.7-2.3c0-1.4-0.8-2.3-2.9-2.3
			h-1.8v4.6H218.4z M218.8,404.6c2.2,0,3.3-1.2,3.3-2.8c0-1.4-0.5-2.8-3.4-2.8h-2.4v5.6H218.8z"/>
		
			<linearGradient id="SVGID_00000151540610457482012520000008753047143224068005_" gradientUnits="userSpaceOnUse" x1="133.7587" y1="397.666" x2="585.5591" y2="397.666">
			<stop  offset="0" style="stop-color:#78BE20"/>
			<stop  offset="0.1201" style="stop-color:#75BC23"/>
			<stop  offset="0.2172" style="stop-color:#6BB42D"/>
			<stop  offset="0.3063" style="stop-color:#5AA73E"/>
			<stop  offset="0.3906" style="stop-color:#439556"/>
			<stop  offset="0.4707" style="stop-color:#257F75"/>
			<stop  offset="0.5481" style="stop-color:#01639A"/>
			<stop  offset="0.55" style="stop-color:#00629B"/>
			<stop  offset="0.9605" style="stop-color:#00629B"/>
			<stop  offset="1" style="stop-color:#00629B"/>
		</linearGradient>
		<path style="fill:url(#SVGID_00000151540610457482012520000008753047143224068005_);" d="M231.4,386.9h6.5c4.1,0,7.5,2.3,7.5,6.8
			c0,3-1.6,5.1-3.8,6.1l4.6,8.7h-5l-4-8h-1.3v8h-4.4V386.9z M237.6,396.7c2.5,0,3.3-1.1,3.3-3c0-1.9-1-3-3.3-3h-1.8v6H237.6z"/>
		
			<linearGradient id="SVGID_00000061456060528692352530000014291699933213201316_" gradientUnits="userSpaceOnUse" x1="133.7587" y1="397.666" x2="585.5591" y2="397.666">
			<stop  offset="0" style="stop-color:#78BE20"/>
			<stop  offset="0.1201" style="stop-color:#75BC23"/>
			<stop  offset="0.2172" style="stop-color:#6BB42D"/>
			<stop  offset="0.3063" style="stop-color:#5AA73E"/>
			<stop  offset="0.3906" style="stop-color:#439556"/>
			<stop  offset="0.4707" style="stop-color:#257F75"/>
			<stop  offset="0.5481" style="stop-color:#01639A"/>
			<stop  offset="0.55" style="stop-color:#00629B"/>
			<stop  offset="0.9605" style="stop-color:#00629B"/>
			<stop  offset="1" style="stop-color:#00629B"/>
		</linearGradient>
		<path style="fill:url(#SVGID_00000061456060528692352530000014291699933213201316_);" d="M256.2,386.9h5.3l7,21.6H264l-1.8-5.6
			h-6.7l-1.8,5.6h-4.5L256.2,386.9z M261.1,399.1l-1-3.2c-0.4-1.2-0.8-3-1.2-4.6c-0.3,1.6-0.8,3.4-1.2,4.6l-1,3.2H261.1z"/>
		
			<linearGradient id="SVGID_00000147931034184364701650000012213605357453279401_" gradientUnits="userSpaceOnUse" x1="133.7587" y1="397.666" x2="585.5591" y2="397.666">
			<stop  offset="0" style="stop-color:#78BE20"/>
			<stop  offset="0.1201" style="stop-color:#75BC23"/>
			<stop  offset="0.2172" style="stop-color:#6BB42D"/>
			<stop  offset="0.3063" style="stop-color:#5AA73E"/>
			<stop  offset="0.3906" style="stop-color:#439556"/>
			<stop  offset="0.4707" style="stop-color:#257F75"/>
			<stop  offset="0.5481" style="stop-color:#01639A"/>
			<stop  offset="0.55" style="stop-color:#00629B"/>
			<stop  offset="0.9605" style="stop-color:#00629B"/>
			<stop  offset="1" style="stop-color:#00629B"/>
		</linearGradient>
		<path style="fill:url(#SVGID_00000147931034184364701650000012213605357453279401_);" d="M274.7,390.7h-5.6v-3.9h15.6v3.9h-5.6
			v17.7h-4.4V390.7z"/>
		
			<linearGradient id="SVGID_00000127735650560488053770000012151075059185215924_" gradientUnits="userSpaceOnUse" x1="133.7587" y1="397.666" x2="585.5591" y2="397.666">
			<stop  offset="0" style="stop-color:#78BE20"/>
			<stop  offset="0.1201" style="stop-color:#75BC23"/>
			<stop  offset="0.2172" style="stop-color:#6BB42D"/>
			<stop  offset="0.3063" style="stop-color:#5AA73E"/>
			<stop  offset="0.3906" style="stop-color:#439556"/>
			<stop  offset="0.4707" style="stop-color:#257F75"/>
			<stop  offset="0.5481" style="stop-color:#01639A"/>
			<stop  offset="0.55" style="stop-color:#00629B"/>
			<stop  offset="0.9605" style="stop-color:#00629B"/>
			<stop  offset="1" style="stop-color:#00629B"/>
		</linearGradient>
		<path style="fill:url(#SVGID_00000127735650560488053770000012151075059185215924_);" d="M289.1,386.9h4.4v21.6h-4.4V386.9z"/>
		
			<linearGradient id="SVGID_00000104684741045451197850000010661831590075015064_" gradientUnits="userSpaceOnUse" x1="133.7587" y1="397.666" x2="585.5591" y2="397.666">
			<stop  offset="0" style="stop-color:#78BE20"/>
			<stop  offset="0.1201" style="stop-color:#75BC23"/>
			<stop  offset="0.2172" style="stop-color:#6BB42D"/>
			<stop  offset="0.3063" style="stop-color:#5AA73E"/>
			<stop  offset="0.3906" style="stop-color:#439556"/>
			<stop  offset="0.4707" style="stop-color:#257F75"/>
			<stop  offset="0.5481" style="stop-color:#01639A"/>
			<stop  offset="0.55" style="stop-color:#00629B"/>
			<stop  offset="0.9605" style="stop-color:#00629B"/>
			<stop  offset="1" style="stop-color:#00629B"/>
		</linearGradient>
		<path style="fill:url(#SVGID_00000104684741045451197850000010661831590075015064_);" d="M299.2,387.3l3.8-0.4l9.2,13.4v-13.4h4.4
			v21.6h-3.9l-9.1-13.3v13.3h-4.4V387.3z"/>
		
			<linearGradient id="SVGID_00000038405723082574049530000017856643990317940415_" gradientUnits="userSpaceOnUse" x1="133.7587" y1="397.666" x2="585.5591" y2="397.666">
			<stop  offset="0" style="stop-color:#78BE20"/>
			<stop  offset="0.1201" style="stop-color:#75BC23"/>
			<stop  offset="0.2172" style="stop-color:#6BB42D"/>
			<stop  offset="0.3063" style="stop-color:#5AA73E"/>
			<stop  offset="0.3906" style="stop-color:#439556"/>
			<stop  offset="0.4707" style="stop-color:#257F75"/>
			<stop  offset="0.5481" style="stop-color:#01639A"/>
			<stop  offset="0.55" style="stop-color:#00629B"/>
			<stop  offset="0.9605" style="stop-color:#00629B"/>
			<stop  offset="1" style="stop-color:#00629B"/>
		</linearGradient>
		<path style="fill:url(#SVGID_00000038405723082574049530000017856643990317940415_);" d="M333.1,386.5c2.6,0,4.8,0.5,7.4,1.6
			l-1.3,3.5c-2.1-0.9-4-1.3-6-1.3c-4.6,0-7,3.8-7,7.3s2.1,7.3,6.7,7.3c1.6,0,3.1-0.2,4.7-0.8v-6.4l4.2-0.7v9.5c-3,1.7-5.9,2.3-9,2.3
			c-7.1,0-11.4-5.1-11.4-11.2S326.1,386.5,333.1,386.5z"/>
		
			<linearGradient id="SVGID_00000083047559632816098010000008539326333420239803_" gradientUnits="userSpaceOnUse" x1="133.7587" y1="397.666" x2="585.5591" y2="397.666">
			<stop  offset="0" style="stop-color:#78BE20"/>
			<stop  offset="0.1201" style="stop-color:#75BC23"/>
			<stop  offset="0.2172" style="stop-color:#6BB42D"/>
			<stop  offset="0.3063" style="stop-color:#5AA73E"/>
			<stop  offset="0.3906" style="stop-color:#439556"/>
			<stop  offset="0.4707" style="stop-color:#257F75"/>
			<stop  offset="0.5481" style="stop-color:#01639A"/>
			<stop  offset="0.55" style="stop-color:#00629B"/>
			<stop  offset="0.9605" style="stop-color:#00629B"/>
			<stop  offset="1" style="stop-color:#00629B"/>
		</linearGradient>
		<path style="fill:url(#SVGID_00000083047559632816098010000008539326333420239803_);" d="M364.1,390.6h-10v-3.7h14.8v2.6l-7.8,19
			h-4.8L364.1,390.6z"/>
		
			<linearGradient id="SVGID_00000158004982225510591520000007862663302828925575_" gradientUnits="userSpaceOnUse" x1="133.7587" y1="397.8682" x2="585.5591" y2="397.8682">
			<stop  offset="0" style="stop-color:#78BE20"/>
			<stop  offset="0.1201" style="stop-color:#75BC23"/>
			<stop  offset="0.2172" style="stop-color:#6BB42D"/>
			<stop  offset="0.3063" style="stop-color:#5AA73E"/>
			<stop  offset="0.3906" style="stop-color:#439556"/>
			<stop  offset="0.4707" style="stop-color:#257F75"/>
			<stop  offset="0.5481" style="stop-color:#01639A"/>
			<stop  offset="0.55" style="stop-color:#00629B"/>
			<stop  offset="0.9605" style="stop-color:#00629B"/>
			<stop  offset="1" style="stop-color:#00629B"/>
		</linearGradient>
		<path style="fill:url(#SVGID_00000158004982225510591520000007862663302828925575_);" d="M373,403.8c1.7,0.8,3.5,1.3,5.2,1.3
			c2.5,0,4.1-1.6,4.1-4c0-1.5-0.7-3.5-3.7-3.5c-1.8,0-3.4,0.3-5.2,1l0.8-11.8h11.5v3.7h-7.8l-0.2,3.6c0.6-0.1,1.1-0.2,1.7-0.2
			c5.2,0,7.4,3.4,7.4,6.9c0,4.6-3.3,7.9-8.3,7.9c-2.3,0-4.4-0.5-6.7-1.7L373,403.8z"/>
		
			<linearGradient id="SVGID_00000155130607587629569940000010432373234405902229_" gradientUnits="userSpaceOnUse" x1="133.7587" y1="397.666" x2="585.5591" y2="397.666">
			<stop  offset="0" style="stop-color:#78BE20"/>
			<stop  offset="0.1201" style="stop-color:#75BC23"/>
			<stop  offset="0.2172" style="stop-color:#6BB42D"/>
			<stop  offset="0.3063" style="stop-color:#5AA73E"/>
			<stop  offset="0.3906" style="stop-color:#439556"/>
			<stop  offset="0.4707" style="stop-color:#257F75"/>
			<stop  offset="0.5481" style="stop-color:#01639A"/>
			<stop  offset="0.55" style="stop-color:#00629B"/>
			<stop  offset="0.9605" style="stop-color:#00629B"/>
			<stop  offset="1" style="stop-color:#00629B"/>
		</linearGradient>
		<path style="fill:url(#SVGID_00000155130607587629569940000010432373234405902229_);" d="M405.9,399.7l-6.9-12.8h5.1l4.1,8.4
			l4.3-8.4h5.1l-7.1,12.8v8.8h-4.5V399.7z"/>
		
			<linearGradient id="SVGID_00000170274844824822340430000010539060695208572327_" gradientUnits="userSpaceOnUse" x1="133.7587" y1="397.666" x2="585.5552" y2="397.666">
			<stop  offset="0" style="stop-color:#78BE20"/>
			<stop  offset="0.1201" style="stop-color:#75BC23"/>
			<stop  offset="0.2172" style="stop-color:#6BB42D"/>
			<stop  offset="0.3063" style="stop-color:#5AA73E"/>
			<stop  offset="0.3906" style="stop-color:#439556"/>
			<stop  offset="0.4707" style="stop-color:#257F75"/>
			<stop  offset="0.5481" style="stop-color:#01639A"/>
			<stop  offset="0.55" style="stop-color:#00629B"/>
			<stop  offset="0.9605" style="stop-color:#00629B"/>
			<stop  offset="1" style="stop-color:#00629B"/>
		</linearGradient>
		<path style="fill:url(#SVGID_00000170274844824822340430000010539060695208572327_);" d="M421.7,386.9h12.7v3.9h-8.2v4.9h7.6
			l-0.4,3.8h-7.2v5.2h8.5v3.9h-12.9V386.9z"/>
		
			<linearGradient id="SVGID_00000154397755533261794480000005489386070690332552_" gradientUnits="userSpaceOnUse" x1="133.7587" y1="397.666" x2="585.5591" y2="397.666">
			<stop  offset="0" style="stop-color:#78BE20"/>
			<stop  offset="0.1201" style="stop-color:#75BC23"/>
			<stop  offset="0.2172" style="stop-color:#6BB42D"/>
			<stop  offset="0.3063" style="stop-color:#5AA73E"/>
			<stop  offset="0.3906" style="stop-color:#439556"/>
			<stop  offset="0.4707" style="stop-color:#257F75"/>
			<stop  offset="0.5481" style="stop-color:#01639A"/>
			<stop  offset="0.55" style="stop-color:#00629B"/>
			<stop  offset="0.9605" style="stop-color:#00629B"/>
			<stop  offset="1" style="stop-color:#00629B"/>
		</linearGradient>
		<path style="fill:url(#SVGID_00000154397755533261794480000005489386070690332552_);" d="M445,386.9h5.3l7,21.6h-4.5l-1.8-5.6
			h-6.7l-1.8,5.6h-4.5L445,386.9z M449.9,399.1l-1-3.2c-0.4-1.2-0.8-3-1.2-4.6c-0.3,1.6-0.8,3.4-1.2,4.6l-1,3.2H449.9z"/>
		
			<linearGradient id="SVGID_00000135682698513236512180000013206238779593228953_" gradientUnits="userSpaceOnUse" x1="133.7587" y1="397.666" x2="585.5591" y2="397.666">
			<stop  offset="0" style="stop-color:#78BE20"/>
			<stop  offset="0.1201" style="stop-color:#75BC23"/>
			<stop  offset="0.2172" style="stop-color:#6BB42D"/>
			<stop  offset="0.3063" style="stop-color:#5AA73E"/>
			<stop  offset="0.3906" style="stop-color:#439556"/>
			<stop  offset="0.4707" style="stop-color:#257F75"/>
			<stop  offset="0.5481" style="stop-color:#01639A"/>
			<stop  offset="0.55" style="stop-color:#00629B"/>
			<stop  offset="0.9605" style="stop-color:#00629B"/>
			<stop  offset="1" style="stop-color:#00629B"/>
		</linearGradient>
		<path style="fill:url(#SVGID_00000135682698513236512180000013206238779593228953_);" d="M461.6,386.9h6.5c4.1,0,7.5,2.3,7.5,6.8
			c0,3-1.6,5.1-3.8,6.1l4.6,8.7h-5l-4-8H466v8h-4.4V386.9z M467.8,396.7c2.5,0,3.3-1.1,3.3-3c0-1.9-1-3-3.3-3H466v6H467.8z"/>
		
			<linearGradient id="SVGID_00000020374546519423904980000009403507091385605772_" gradientUnits="userSpaceOnUse" x1="133.7587" y1="397.666" x2="585.5591" y2="397.666">
			<stop  offset="0" style="stop-color:#78BE20"/>
			<stop  offset="0.1201" style="stop-color:#75BC23"/>
			<stop  offset="0.2172" style="stop-color:#6BB42D"/>
			<stop  offset="0.3063" style="stop-color:#5AA73E"/>
			<stop  offset="0.3906" style="stop-color:#439556"/>
			<stop  offset="0.4707" style="stop-color:#257F75"/>
			<stop  offset="0.5481" style="stop-color:#01639A"/>
			<stop  offset="0.55" style="stop-color:#00629B"/>
			<stop  offset="0.9605" style="stop-color:#00629B"/>
			<stop  offset="1" style="stop-color:#00629B"/>
		</linearGradient>
		<path style="fill:url(#SVGID_00000020374546519423904980000009403507091385605772_);" d="M481,403.6c1.8,0.9,3.5,1.4,5.4,1.4
			c1.8,0,2.8-1,2.8-2.4c0-3.6-8.8-2.9-8.8-9.9c0-3.8,3.1-6.2,7.1-6.2c2,0,3.7,0.5,5.7,1.4l-1.3,3.5c-1.5-0.7-2.9-1-4.4-1
			c-1.6,0-2.4,1-2.4,2.3c0,3.4,8.8,3.1,8.8,9.9c0,3.8-3.3,6.3-7.5,6.3c-2.2,0-4.4-0.5-6.6-1.6L481,403.6z"/>
	</g>
	
		<radialGradient id="SVGID_00000128471065941488648340000006751003273379538107_" cx="-2354.2129" cy="-470.6886" r="32.3164" gradientTransform="matrix(4.3851 0 0 0.4909 10765.752 469.8275)" gradientUnits="userSpaceOnUse">
		<stop  offset="0" style="stop-color:#191918"/>
		<stop  offset="0.1421" style="stop-color:#727272"/>
		<stop  offset="0.2093" style="stop-color:#848484;stop-opacity:0.9217"/>
		<stop  offset="0.389" style="stop-color:#B0B0B0;stop-opacity:0.7122"/>
		<stop  offset="0.5627" style="stop-color:#D2D2D2;stop-opacity:0.5097"/>
		<stop  offset="0.7266" style="stop-color:#EBEBEB;stop-opacity:0.3187"/>
		<stop  offset="0.8766" style="stop-color:#FAFAFA;stop-opacity:0.1438"/>
		<stop  offset="1" style="stop-color:#FFFFFF;stop-opacity:0"/>
	</radialGradient>
	
		<ellipse style="opacity:0.5;fill:url(#SVGID_00000128471065941488648340000006751003273379538107_);" cx="442.3" cy="238.8" rx="141.7" ry="15.9"/>
	
		<linearGradient id="SVGID_00000018210532671440564870000012634348375945804674_" gradientUnits="userSpaceOnUse" x1="357.8491" y1="139.4912" x2="517.3119" y2="139.4912">
		<stop  offset="0" style="stop-color:#76BC43"/>
		<stop  offset="5.305592e-02" style="stop-color:#61AC51"/>
		<stop  offset="0.1567" style="stop-color:#3E9269"/>
		<stop  offset="0.262" style="stop-color:#237D7C"/>
		<stop  offset="0.3682" style="stop-color:#0F6F89"/>
		<stop  offset="0.4759" style="stop-color:#046691"/>
		<stop  offset="0.5873" style="stop-color:#006394"/>
		<stop  offset="1" style="stop-color:#006394"/>
	</linearGradient>
	<path style="fill:url(#SVGID_00000018210532671440564870000012634348375945804674_);" d="M455.1,127.6c-0.9-0.1-1.7,0.7-1.8,1.6
		c0,0.9,0.7,1.7,1.6,1.8c27,1.4,50.1,10.1,56.9,20.3c0.2-1.6,0.4-3.1,0.5-4.7C503,136.6,481.3,129,455.1,127.6z"/>
	
		<linearGradient id="SVGID_00000012470705820375242150000010976524915680712587_" gradientUnits="userSpaceOnUse" x1="300.9067" y1="135.8798" x2="443.5757" y2="135.8798">
		<stop  offset="0.1701" style="stop-color:#006394;stop-opacity:0"/>
		<stop  offset="0.5206" style="stop-color:#006394;stop-opacity:0.8"/>
		<stop  offset="1" style="stop-color:#006394"/>
	</linearGradient>
	<path style="fill:url(#SVGID_00000012470705820375242150000010976524915680712587_);" d="M307.2,200.9c-3.4,0-5.5-0.3-5.7-0.4
		c-0.4-0.1-0.7-0.5-0.6-0.9c0.1-0.4,0.5-0.7,0.9-0.6c0.1,0,12.7,2.2,26.8-4c18.7-8.2,31.6-27.2,37.3-55c4.3-21.1,15.5-49,44.2-62.4
		c17.2-8,32.7-6.9,32.8-6.9c0.4,0,0.7,0.4,0.7,0.8c0,0.4-0.4,0.7-0.8,0.7c-0.2,0-15.4-1-32.2,6.8c-15.5,7.2-35.6,23.8-43.3,61.3
		C356.1,195.4,321,200.9,307.2,200.9z"/>
	
		<linearGradient id="SVGID_00000181766779519734843780000002534784069567835326_" gradientUnits="userSpaceOnUse" x1="371.1661" y1="142.0092" x2="515.8538" y2="142.0092">
		<stop  offset="0" style="stop-color:#00629B"/>
		<stop  offset="0.9996" style="stop-color:#78BE20"/>
	</linearGradient>
	<path style="fill:url(#SVGID_00000181766779519734843780000002534784069567835326_);" d="M443.5,214.4c-39.9,0-72.3-32.5-72.3-72.3
		s32.5-72.3,72.3-72.3s72.3,32.5,72.3,72.3S483.4,214.4,443.5,214.4z M443.5,73c-38,0-69,30.9-69,69s30.9,69,69,69
		c38,0,69-30.9,69-69S481.6,73,443.5,73z"/>
	
		<linearGradient id="SVGID_00000088094829393418393600000011967521754599013557_" gradientUnits="userSpaceOnUse" x1="400.6116" y1="114.7673" x2="528.5001" y2="114.7673">
		<stop  offset="0" style="stop-color:#00629B"/>
		<stop  offset="1" style="stop-color:#78BE20"/>
	</linearGradient>
	<path style="fill:url(#SVGID_00000088094829393418393600000011967521754599013557_);" d="M401.4,139.3c-0.1,0-0.2,0-0.3-0.1
		c-0.4-0.2-0.6-0.6-0.4-1c9.3-23,23.7-37.9,42.8-44.4c38.7-13.2,84.2,13,84.6,13.3c0.4,0.2,0.5,0.7,0.3,1c-0.2,0.4-0.7,0.5-1,0.3
		c-0.4-0.3-45.3-26.1-83.4-13.2c-18.7,6.4-32.8,21-41.9,43.6C401.9,139.2,401.6,139.3,401.4,139.3z"/>
	
		<rect x="396.5" y="133.7" transform="matrix(-0.4199 0.9076 -0.9076 -0.4199 695.482 -168.1921)" class="st23" width="9.9" height="8.9"/>
	
		<rect x="495.1" y="146.2" transform="matrix(-0.4258 0.9048 -0.9048 -0.4258 843.9213 -238.5265)" class="st24" width="5.2" height="4.6"/>
	
		<rect x="390.7" y="153.5" transform="matrix(-0.4258 0.9048 -0.9048 -0.4258 701.8131 -133.6794)" class="st24" width="5.2" height="4.6"/>
	
		<rect x="458.1" y="80.8" transform="matrix(0.4361 0.8999 -0.8999 0.4361 334.3654 -367.6439)" class="st24" width="4.8" height="4.3"/>
	
		<rect x="427.6" y="154.1" transform="matrix(0.3153 0.949 -0.949 0.3153 447.3837 -302.1096)" class="st25" width="10.8" height="9.7"/>
	
		<rect x="397.8" y="92.4" transform="matrix(0.6399 -0.7685 0.7685 0.6399 72.6 344.5228)" class="st25" width="12.1" height="4.9"/>
	
		<rect x="416.8" y="197.1" transform="matrix(0.9235 0.3835 -0.3835 0.9235 108.9824 -146.8942)" class="st23" width="12.1" height="5.5"/>
	
		<linearGradient id="SVGID_00000160173883402271966370000016363278703446473886_" gradientUnits="userSpaceOnUse" x1="317.3369" y1="194.3924" x2="522.0032" y2="194.3924">
		<stop  offset="0" style="stop-color:#00629B;stop-opacity:0"/>
		<stop  offset="1" style="stop-color:#00629B"/>
	</linearGradient>
	<path style="fill:url(#SVGID_00000160173883402271966370000016363278703446473886_);" d="M449.7,225.7c-0.9,0-1.8,0-2.7,0
		c-0.4,0-0.7-0.4-0.7-0.8c0-0.4,0.3-0.7,0.8-0.7c0.9,0,1.8,0,2.7,0l0.3,0c0,0,0,0,0,0c0.4,0,0.8,0.3,0.8,0.7c0,0.4-0.3,0.7-0.8,0.7
		L449.7,225.7z M453.1,225.6c-0.4,0-0.7-0.3-0.8-0.7c0-0.4,0.3-0.8,0.7-0.8c1,0,2-0.1,3-0.2c0.4,0,0.8,0.3,0.8,0.7
		c0,0.4-0.3,0.8-0.7,0.8C455.2,225.5,454.1,225.6,453.1,225.6C453.1,225.6,453.1,225.6,453.1,225.6z M444,225.5
		C444,225.5,444,225.5,444,225.5c-1.1-0.1-2.1-0.1-3.1-0.2c-0.4,0-0.7-0.4-0.7-0.8c0-0.4,0.4-0.7,0.8-0.7c1,0.1,2,0.2,3,0.2
		c0.4,0,0.7,0.4,0.7,0.8C444.8,225.2,444.4,225.5,444,225.5z M459.1,225.2c-0.4,0-0.7-0.3-0.7-0.7c0-0.4,0.3-0.8,0.7-0.8
		c1-0.1,2-0.2,3-0.4c0.4-0.1,0.8,0.2,0.9,0.6c0.1,0.4-0.2,0.8-0.6,0.8C461.2,225,460.2,225.1,459.1,225.2
		C459.2,225.2,459.2,225.2,459.1,225.2z M438,224.9c0,0-0.1,0-0.1,0c-1-0.1-2-0.3-3-0.4c-0.4-0.1-0.7-0.4-0.6-0.9
		c0.1-0.4,0.5-0.7,0.9-0.6c1,0.2,2,0.3,3,0.4c0.4,0.1,0.7,0.4,0.6,0.8C438.7,224.7,438.4,224.9,438,224.9z M465.1,224.4
		c-0.4,0-0.7-0.3-0.7-0.6c-0.1-0.4,0.2-0.8,0.6-0.9c1-0.2,2-0.4,2.9-0.6c0.4-0.1,0.8,0.2,0.9,0.6c0.1,0.4-0.2,0.8-0.6,0.9
		c-1,0.2-2,0.4-3,0.6C465.2,224.4,465.2,224.4,465.1,224.4z M432.1,223.9c-0.1,0-0.1,0-0.2,0c-1-0.2-2-0.4-3-0.6
		c-0.4-0.1-0.7-0.5-0.6-0.9c0.1-0.4,0.5-0.6,0.9-0.5c1,0.2,1.9,0.4,2.9,0.6c0.4,0.1,0.7,0.5,0.6,0.9
		C432.7,223.7,432.4,223.9,432.1,223.9z M471,223.2c-0.3,0-0.6-0.2-0.7-0.6c-0.1-0.4,0.1-0.8,0.6-0.9c1-0.2,1.9-0.5,2.9-0.8
		c0.4-0.1,0.8,0.1,0.9,0.5c0.1,0.4-0.1,0.8-0.5,0.9c-1,0.3-2,0.5-2.9,0.8C471.2,223.2,471.1,223.2,471,223.2z M426.2,222.6
		c-0.1,0-0.1,0-0.2,0c-1-0.3-2-0.5-2.9-0.8c-0.4-0.1-0.6-0.5-0.5-0.9c0.1-0.4,0.6-0.6,0.9-0.5c1,0.3,1.9,0.6,2.9,0.8
		c0.4,0.1,0.6,0.5,0.5,0.9C426.8,222.4,426.5,222.6,426.2,222.6z M476.9,221.6c-0.3,0-0.6-0.2-0.7-0.5c-0.1-0.4,0.1-0.8,0.5-0.9
		c1-0.3,1.9-0.6,2.8-1c0.4-0.1,0.8,0.1,1,0.4c0.1,0.4-0.1,0.8-0.5,0.9c-1,0.3-1.9,0.7-2.9,1C477,221.5,476.9,221.6,476.9,221.6z
		 M420.4,220.8c-0.1,0-0.2,0-0.3,0c-1-0.3-1.9-0.7-2.9-1.1c-0.4-0.2-0.6-0.6-0.4-1c0.2-0.4,0.6-0.6,1-0.4c0.9,0.4,1.9,0.7,2.8,1
		c0.4,0.1,0.6,0.6,0.5,0.9C421,220.6,420.7,220.8,420.4,220.8z M482.5,219.5c-0.3,0-0.6-0.2-0.7-0.5c-0.2-0.4,0-0.8,0.4-1
		c0.9-0.4,1.8-0.8,2.7-1.2c0.4-0.2,0.8,0,1,0.4c0.2,0.4,0,0.8-0.4,1c-0.9,0.4-1.9,0.8-2.8,1.2C482.7,219.5,482.6,219.5,482.5,219.5z
		 M414.8,218.6c-0.1,0-0.2,0-0.3-0.1c-0.9-0.4-1.9-0.8-2.8-1.3c-0.4-0.2-0.5-0.6-0.3-1c0.2-0.4,0.6-0.5,1-0.3
		c0.9,0.4,1.8,0.8,2.7,1.2c0.4,0.2,0.6,0.6,0.4,1C415.4,218.4,415.1,218.6,414.8,218.6z M488,217.1c-0.3,0-0.5-0.2-0.7-0.4
		c-0.2-0.4,0-0.8,0.3-1c0.9-0.4,1.8-0.9,2.6-1.4c0.4-0.2,0.8-0.1,1,0.3c0.2,0.4,0.1,0.8-0.3,1c-0.9,0.5-1.8,0.9-2.7,1.4
		C488.3,217.1,488.2,217.1,488,217.1z M409.4,216c-0.1,0-0.2,0-0.4-0.1c-0.9-0.5-1.8-1-2.7-1.5c-0.4-0.2-0.5-0.7-0.3-1
		c0.2-0.4,0.7-0.5,1-0.3c0.9,0.5,1.7,1,2.6,1.4c0.4,0.2,0.5,0.6,0.3,1C409.9,215.9,409.6,216,409.4,216z M493.3,214.2
		c-0.3,0-0.5-0.1-0.6-0.4c-0.2-0.3-0.1-0.8,0.3-1c0.9-0.5,1.7-1,2.5-1.6c0.3-0.2,0.8-0.1,1,0.2c0.2,0.3,0.1,0.8-0.2,1
		c-0.8,0.6-1.7,1.1-2.6,1.6C493.6,214.2,493.5,214.2,493.3,214.2z M404.2,213c-0.1,0-0.3,0-0.4-0.1c-0.9-0.5-1.7-1.1-2.5-1.7
		c-0.3-0.2-0.4-0.7-0.2-1c0.2-0.3,0.7-0.4,1.1-0.2c0.8,0.6,1.7,1.1,2.5,1.6c0.4,0.2,0.5,0.7,0.2,1C404.6,212.9,404.4,213,404.2,213z
		 M498.3,211c-0.2,0-0.5-0.1-0.6-0.3c-0.2-0.3-0.2-0.8,0.2-1c0.8-0.6,1.6-1.2,2.4-1.8c0.3-0.3,0.8-0.2,1.1,0.1
		c0.3,0.3,0.2,0.8-0.1,1c-0.8,0.6-1.6,1.2-2.4,1.8C498.7,210.9,498.5,211,498.3,211z M399.2,209.6c-0.2,0-0.3,0-0.5-0.1
		c-0.8-0.6-1.6-1.2-2.4-1.8c-0.3-0.3-0.4-0.7-0.1-1c0.3-0.3,0.7-0.4,1.1-0.1c0.8,0.6,1.6,1.2,2.4,1.8c0.3,0.2,0.4,0.7,0.2,1
		C399.6,209.5,399.4,209.6,399.2,209.6z M503.1,207.3c-0.2,0-0.4-0.1-0.6-0.2c-0.3-0.3-0.2-0.8,0.1-1c0.7-0.6,1.5-1.3,2.2-2
		c0.3-0.3,0.8-0.3,1.1,0c0.3,0.3,0.3,0.8,0,1c-0.7,0.7-1.5,1.4-2.2,2C503.4,207.2,503.2,207.3,503.1,207.3z M394.5,205.9
		c-0.2,0-0.3-0.1-0.5-0.2c-0.8-0.6-1.5-1.3-2.3-1.9c-0.3-0.3-0.4-0.7-0.1-1c0.3-0.3,0.7-0.4,1.1-0.1c0.8,0.6,1.6,1.3,2.3,1.9
		c0.3,0.3,0.4,0.7,0.1,1C394.9,205.8,394.7,205.9,394.5,205.9z M507.4,203.1c-0.2,0-0.4-0.1-0.5-0.2c-0.3-0.3-0.3-0.7,0-1
		c0.7-0.7,1.3-1.5,2-2.2c0.3-0.3,0.7-0.4,1.1-0.1c0.3,0.3,0.4,0.7,0.1,1c-0.6,0.8-1.3,1.5-2,2.3C507.8,203,507.6,203.1,507.4,203.1z
		 M389.8,202.2c-0.2,0-0.3-0.1-0.5-0.2c-0.8-0.6-1.6-1.2-2.4-1.8c-0.3-0.2-0.4-0.7-0.1-1c0.3-0.3,0.7-0.4,1.1-0.1
		c0.8,0.6,1.6,1.2,2.4,1.8c0.3,0.3,0.4,0.7,0.1,1C390.2,202.1,390,202.2,389.8,202.2z M385,198.6c-0.2,0-0.3,0-0.4-0.1
		c-0.8-0.6-1.6-1.1-2.4-1.7c-0.3-0.2-0.4-0.7-0.2-1c0.2-0.3,0.7-0.4,1.1-0.2c0.8,0.6,1.6,1.1,2.5,1.7c0.3,0.2,0.4,0.7,0.2,1
		C385.4,198.5,385.2,198.6,385,198.6z M511.2,198.6c-0.2,0-0.3,0-0.4-0.1c-0.3-0.2-0.4-0.7-0.2-1c0.6-0.8,1.2-1.6,1.7-2.4
		c0.2-0.3,0.7-0.4,1-0.2c0.3,0.2,0.4,0.7,0.2,1c-0.6,0.8-1.1,1.7-1.8,2.5C511.7,198.5,511.4,198.6,511.2,198.6z M380,195.2
		c-0.1,0-0.3,0-0.4-0.1c-0.8-0.6-1.7-1.1-2.5-1.6c-0.3-0.2-0.4-0.7-0.2-1c0.2-0.3,0.7-0.4,1-0.2c0.8,0.5,1.7,1.1,2.5,1.7
		c0.3,0.2,0.4,0.7,0.2,1C380.5,195.1,380.3,195.2,380,195.2z M514.5,193.6c-0.1,0-0.3,0-0.4-0.1c-0.4-0.2-0.5-0.7-0.3-1
		c0.5-0.8,1-1.7,1.4-2.6c0.2-0.4,0.6-0.5,1-0.3c0.4,0.2,0.5,0.6,0.3,1c-0.5,0.9-0.9,1.8-1.4,2.6C515,193.5,514.8,193.6,514.5,193.6z
		 M375,192c-0.1,0-0.3,0-0.4-0.1c-0.8-0.5-1.7-1.1-2.5-1.6c-0.4-0.2-0.5-0.7-0.2-1c0.2-0.3,0.7-0.4,1-0.2c0.9,0.5,1.7,1.1,2.6,1.6
		c0.4,0.2,0.5,0.7,0.2,1C375.5,191.8,375.2,192,375,192z M369.9,188.8c-0.1,0-0.3,0-0.4-0.1c-0.9-0.5-1.7-1-2.6-1.5
		c-0.4-0.2-0.5-0.7-0.3-1c0.2-0.4,0.7-0.5,1-0.3c0.9,0.5,1.7,1,2.6,1.5c0.4,0.2,0.5,0.7,0.3,1C370.4,188.7,370.1,188.8,369.9,188.8z
		 M517.2,188.3c-0.1,0-0.2,0-0.3-0.1c-0.4-0.2-0.6-0.6-0.4-1c0.4-0.9,0.8-1.8,1.1-2.7c0.1-0.4,0.6-0.6,1-0.4
		c0.4,0.1,0.6,0.6,0.5,0.9c-0.3,0.9-0.7,1.9-1.1,2.8C517.8,188.2,517.5,188.3,517.2,188.3z M364.7,185.8c-0.1,0-0.3,0-0.4-0.1
		c-0.9-0.5-1.8-1-2.6-1.5c-0.4-0.2-0.5-0.6-0.3-1c0.2-0.4,0.7-0.5,1-0.3c0.9,0.5,1.8,1,2.6,1.5c0.4,0.2,0.5,0.7,0.3,1
		C365.2,185.7,364.9,185.8,364.7,185.8z M359.4,182.9c-0.1,0-0.2,0-0.4-0.1c-0.9-0.5-1.8-0.9-2.7-1.4c-0.4-0.2-0.5-0.6-0.3-1
		c0.2-0.4,0.7-0.5,1-0.3c0.9,0.5,1.8,0.9,2.7,1.4c0.4,0.2,0.5,0.6,0.3,1C359.9,182.8,359.6,182.9,359.4,182.9z M519.3,182.8
		c-0.1,0-0.1,0-0.2,0c-0.4-0.1-0.6-0.5-0.5-0.9c0.3-0.9,0.5-1.9,0.7-2.8c0.1-0.4,0.5-0.6,0.9-0.6c0.4,0.1,0.7,0.5,0.6,0.9
		c-0.2,1-0.5,1.9-0.8,2.9C519.9,182.6,519.6,182.8,519.3,182.8z M354,180.2c-0.1,0-0.2,0-0.3-0.1c-0.9-0.5-1.8-0.9-2.7-1.3
		c-0.4-0.2-0.5-0.6-0.3-1c0.2-0.4,0.6-0.5,1-0.3c0.9,0.4,1.8,0.9,2.7,1.4c0.4,0.2,0.5,0.6,0.3,1C354.6,180,354.3,180.2,354,180.2z
		 M348.6,177.5c-0.1,0-0.2,0-0.3-0.1c-0.9-0.4-1.8-0.9-2.7-1.3c-0.4-0.2-0.5-0.6-0.4-1c0.2-0.4,0.6-0.5,1-0.3
		c0.9,0.4,1.8,0.9,2.7,1.3c0.4,0.2,0.5,0.6,0.3,1C349.2,177.3,348.9,177.5,348.6,177.5z M520.6,177c0,0-0.1,0-0.1,0
		c-0.4-0.1-0.7-0.4-0.6-0.8c0.2-0.9,0.3-1.9,0.4-2.9c0-0.4,0.4-0.7,0.8-0.7c0.4,0,0.7,0.4,0.7,0.8c-0.1,1-0.2,2-0.4,3
		C521.3,176.8,520.9,177,520.6,177z M343.2,174.9c-0.1,0-0.2,0-0.3-0.1c-0.9-0.4-1.8-0.8-2.7-1.2c-0.4-0.2-0.5-0.6-0.4-1
		c0.2-0.4,0.6-0.5,1-0.4c0.9,0.4,1.8,0.8,2.7,1.3c0.4,0.2,0.5,0.6,0.4,1C343.8,174.7,343.5,174.9,343.2,174.9z M337.7,172.4
		c-0.1,0-0.2,0-0.3-0.1c-0.9-0.4-1.9-0.8-2.8-1.2c-0.4-0.2-0.6-0.6-0.4-1c0.2-0.4,0.6-0.5,1-0.4c0.9,0.4,1.8,0.8,2.8,1.2
		c0.4,0.2,0.6,0.6,0.4,1C338.3,172.3,338,172.4,337.7,172.4z M521.2,171.2C521.2,171.2,521.2,171.2,521.2,171.2
		c-0.5,0-0.8-0.4-0.8-0.8c0-0.4,0-0.7,0-1.1c0-0.4,0.3-0.7,0.8-0.7c0,0,0,0,0,0c0.4,0,0.7,0.4,0.7,0.8c0,0.4,0,0.7,0,1.1
		C521.9,170.9,521.6,171.2,521.2,171.2z M332.2,170c-0.1,0-0.2,0-0.3-0.1c-1-0.4-1.9-0.8-2.8-1.1c-0.4-0.2-0.6-0.6-0.4-1
		c0.2-0.4,0.6-0.6,1-0.4c0.9,0.4,1.8,0.7,2.8,1.2c0.4,0.2,0.6,0.6,0.4,1C332.7,169.9,332.5,170,332.2,170z M326.6,167.8
		c-0.1,0-0.2,0-0.3-0.1c-1-0.4-2-0.8-2.8-1.1c-0.4-0.1-0.6-0.6-0.4-1c0.2-0.4,0.6-0.6,1-0.4c0.9,0.3,1.8,0.7,2.8,1.1
		c0.4,0.2,0.6,0.6,0.4,1C327.2,167.6,326.9,167.8,326.6,167.8z M320.9,165.6c-0.1,0-0.2,0-0.3,0c-1.8-0.7-2.8-1-2.8-1
		c-0.4-0.1-0.6-0.6-0.5-0.9c0.1-0.4,0.6-0.6,1-0.5c0,0,1,0.3,2.9,1c0.4,0.1,0.6,0.6,0.4,1C321.5,165.4,321.2,165.6,320.9,165.6z"/>
	
		<rect x="517.6" y="164.2" transform="matrix(-6.394842e-02 0.998 -0.998 -6.394842e-02 722.279 -342.0727)" class="st23" width="7.9" height="7.1"/>
	<rect x="523.8" y="104.3" transform="matrix(-0.5 0.866 -0.866 -0.5 885.0359 -295.2909)" class="st25" width="7.9" height="7.1"/>
	
		<linearGradient id="SVGID_00000122704887592635770260000010294866112305032588_" gradientUnits="userSpaceOnUse" x1="390.001" y1="161.7381" x2="561.1594" y2="161.7381">
		<stop  offset="0" style="stop-color:#76BC43"/>
		<stop  offset="1" style="stop-color:#DADADA;stop-opacity:0.1"/>
	</linearGradient>
	<path style="fill:url(#SVGID_00000122704887592635770260000010294866112305032588_);" d="M390.8,224.8c-0.4,0-0.7-0.3-0.7-0.7
		c-0.6-41.7,11.8-73.7,36.8-95c49.6-42.2,132.9-28.1,133.7-28c0.4,0.1,0.7,0.5,0.6,0.9c-0.1,0.4-0.5,0.7-0.9,0.6
		c-0.8-0.1-83.5-14.1-132.5,27.7c-24.7,21-36.9,52.6-36.3,93.8C391.5,224.4,391.2,224.8,390.8,224.8
		C390.8,224.8,390.8,224.8,390.8,224.8z"/>
	
		<rect x="451.8" y="125.5" transform="matrix(-6.394842e-02 0.998 -0.998 -6.394842e-02 614.2118 -317.4973)" class="st23" width="8.5" height="7.6"/>
	
		<linearGradient id="SVGID_00000066511028544014195080000002884287351036398006_" gradientUnits="userSpaceOnUse" x1="262.5436" y1="-167.7791" x2="383.0569" y2="-165.1218" gradientTransform="matrix(1.1025 0.1911 0.1911 1.1889 62.1353 240.8986)">
		<stop  offset="0.3892" style="stop-color:#00629B"/>
		<stop  offset="0.8443" style="stop-color:#B6B7B9"/>
		<stop  offset="1" style="stop-color:#B6B7B9"/>
	</linearGradient>
	<path style="fill:url(#SVGID_00000066511028544014195080000002884287351036398006_);" d="M436.9,174.6c-0.3,0-0.6-0.2-0.7-0.4
		c-0.2-0.4-0.1-0.9,0.4-1.1c1-0.5,2-1,2.9-1.6c0.4-0.2,0.9-0.1,1.1,0.3c0.2,0.4,0.1,0.9-0.3,1.1c-1,0.5-2,1.1-3,1.6
		C437.1,174.6,437,174.6,436.9,174.6z M442.7,171.4c-0.3,0-0.6-0.2-0.7-0.4c-0.2-0.4-0.1-0.9,0.3-1.1c1-0.6,1.9-1.1,2.9-1.7
		c0.4-0.2,0.9-0.1,1.1,0.3c0.2,0.4,0.1,0.9-0.3,1.1c-0.9,0.6-1.9,1.1-2.9,1.7C443,171.4,442.9,171.4,442.7,171.4z M448.5,168
		c-0.3,0-0.6-0.1-0.7-0.4c-0.2-0.4-0.1-0.9,0.3-1.1c1-0.6,1.9-1.2,2.8-1.8c0.4-0.3,0.9-0.1,1.2,0.2c0.3,0.4,0.1,0.9-0.2,1.2
		c-0.9,0.6-1.9,1.2-2.8,1.8C448.8,168,448.6,168,448.5,168z M454.1,164.4c-0.3,0-0.5-0.1-0.7-0.4c-0.3-0.4-0.2-0.9,0.2-1.2
		c0.9-0.6,1.8-1.3,2.7-1.9c0.4-0.3,0.9-0.2,1.2,0.2c0.3,0.4,0.2,0.9-0.2,1.2c-0.9,0.6-1.8,1.3-2.7,1.9
		C454.4,164.3,454.2,164.4,454.1,164.4z M459.5,160.5c-0.2,0-0.5-0.1-0.7-0.3c-0.3-0.4-0.2-0.9,0.2-1.2c0.9-0.7,1.8-1.4,2.6-2.1
		c0.4-0.3,0.9-0.2,1.2,0.1c0.3,0.4,0.2,0.9-0.1,1.2c-0.9,0.7-1.7,1.4-2.6,2.1C459.8,160.4,459.6,160.5,459.5,160.5z M464.6,156.3
		c-0.2,0-0.5-0.1-0.6-0.3c-0.3-0.3-0.3-0.9,0.1-1.2c0.8-0.7,1.7-1.5,2.5-2.2c0.3-0.3,0.9-0.3,1.2,0c0.3,0.3,0.3,0.9,0,1.2
		c-0.8,0.7-1.6,1.5-2.5,2.2C465,156.2,464.8,156.3,464.6,156.3z M469.5,151.7c-0.2,0-0.4-0.1-0.6-0.2c-0.3-0.3-0.3-0.9,0-1.2
		c0.8-0.8,1.6-1.6,2.3-2.4c0.3-0.3,0.8-0.4,1.2,0c0.3,0.3,0.4,0.8,0,1.2c-0.7,0.8-1.5,1.6-2.3,2.4
		C469.9,151.6,469.7,151.7,469.5,151.7z M474,146.8c-0.2,0-0.4-0.1-0.5-0.2c-0.4-0.3-0.4-0.8-0.1-1.2c0.7-0.9,1.4-1.7,2.1-2.6
		c0.3-0.4,0.8-0.4,1.2-0.1c0.4,0.3,0.4,0.8,0.1,1.2c-0.7,0.9-1.4,1.7-2.1,2.6C474.5,146.7,474.3,146.8,474,146.8z M478.1,141.6
		c-0.2,0-0.3,0-0.5-0.2c-0.4-0.3-0.5-0.8-0.2-1.2c0.6-0.9,1.2-1.8,1.8-2.7c0.2-0.4,0.8-0.5,1.1-0.3c0.4,0.2,0.5,0.8,0.3,1.1
		c-0.6,0.9-1.2,1.9-1.9,2.8C478.6,141.4,478.4,141.6,478.1,141.6z M481.6,135.9c-0.1,0-0.3,0-0.4-0.1c-0.4-0.2-0.5-0.7-0.3-1.1
		c0.5-1,1-2,1.5-2.9c0.2-0.4,0.7-0.6,1.1-0.4c0.4,0.2,0.6,0.7,0.4,1.1c-0.5,1-1,2-1.5,3C482.2,135.8,481.9,135.9,481.6,135.9z
		 M484.5,129.9c-0.1,0-0.2,0-0.3-0.1c-0.4-0.2-0.6-0.7-0.5-1.1c0.4-1,0.8-2,1.1-3.1c0.1-0.4,0.6-0.7,1.1-0.5
		c0.4,0.1,0.7,0.6,0.5,1.1c-0.4,1.1-0.8,2.1-1.2,3.2C485.2,129.7,484.8,129.9,484.5,129.9z M486.6,123.6c-0.1,0-0.1,0-0.2,0
		c-0.4-0.1-0.7-0.6-0.6-1c0.3-1.1,0.5-2.1,0.7-3.2c0.1-0.5,0.5-0.7,1-0.7c0.5,0.1,0.7,0.5,0.7,1c-0.2,1.1-0.5,2.2-0.7,3.3
		C487.3,123.3,487,123.6,486.6,123.6z M487.8,117C487.8,117,487.8,117,487.8,117c-0.6-0.1-0.9-0.5-0.8-0.9c0.1-1.1,0.2-2.2,0.3-3.3
		c0-0.5,0.4-0.8,0.9-0.8c0.5,0,0.8,0.4,0.8,0.9c-0.1,1.1-0.1,2.3-0.3,3.4C488.6,116.7,488.3,117,487.8,117z M362.1,116.6
		c-0.1,0-0.3,0-0.4-0.1c-0.4-0.2-0.6-0.7-0.3-1.1l1.1-2.1c0.2-0.4,0.7-0.6,1.1-0.3c0.4,0.2,0.6,0.7,0.3,1.1l-1.1,2.1
		C362.7,116.4,362.4,116.6,362.1,116.6z M364.8,111.6c-0.1,0-0.3,0-0.4-0.1c-0.4-0.2-0.5-0.7-0.3-1.1c0.5-0.9,1.1-1.9,1.7-2.9
		c0.2-0.4,0.7-0.5,1.1-0.3c0.4,0.2,0.5,0.7,0.3,1.1c-0.6,1-1.1,2-1.6,2.9C365.4,111.4,365.1,111.6,364.8,111.6z M488.2,110.4
		c-0.5,0-0.8-0.4-0.8-0.8c0-1.1-0.1-2.2-0.2-3.3c0-0.5,0.3-0.9,0.8-0.9c0.4,0,0.9,0.3,0.9,0.8c0.1,1.1,0.2,2.3,0.2,3.4
		C489,110,488.6,110.4,488.2,110.4C488.2,110.4,488.2,110.4,488.2,110.4z M368.2,105.8c-0.1,0-0.3,0-0.4-0.1
		c-0.4-0.2-0.5-0.7-0.3-1.1c0.6-0.9,1.1-1.9,1.8-2.9c0.2-0.4,0.8-0.5,1.1-0.3c0.4,0.2,0.5,0.8,0.3,1.1c-0.6,1-1.2,1.9-1.7,2.8
		C368.7,105.6,368.4,105.8,368.2,105.8z M487.6,103.7c-0.4,0-0.8-0.3-0.8-0.7c-0.2-1.1-0.4-2.2-0.6-3.2c-0.1-0.4,0.2-0.9,0.6-1
		c0.4-0.1,0.9,0.2,1,0.6c0.2,1.1,0.5,2.2,0.6,3.3c0.1,0.5-0.2,0.9-0.7,1C487.6,103.7,487.6,103.7,487.6,103.7z M371.7,100.1
		c-0.2,0-0.3,0-0.5-0.1c-0.4-0.3-0.5-0.8-0.2-1.2c0.6-0.9,1.2-1.8,1.9-2.8c0.3-0.4,0.8-0.5,1.2-0.2c0.4,0.3,0.5,0.8,0.2,1.2
		c-0.6,0.9-1.3,1.9-1.8,2.8C372.3,100,372,100.1,371.7,100.1z M486.1,97.2c-0.4,0-0.7-0.2-0.8-0.6c-0.3-1-0.6-2.1-1-3.1
		c-0.2-0.4,0.1-0.9,0.5-1.1c0.4-0.2,0.9,0.1,1.1,0.5c0.4,1.1,0.7,2.2,1,3.2c0.1,0.4-0.1,0.9-0.6,1C486.3,97.2,486.2,97.2,486.1,97.2
		z M375.5,94.6c-0.2,0-0.3,0-0.5-0.2c-0.4-0.3-0.5-0.8-0.2-1.2c0.6-0.9,1.3-1.8,2-2.7c0.3-0.4,0.8-0.4,1.2-0.2
		c0.4,0.3,0.4,0.8,0.2,1.2c-0.7,0.9-1.3,1.8-2,2.7C376,94.5,375.7,94.6,375.5,94.6z M483.9,90.9c-0.3,0-0.6-0.2-0.8-0.5
		c-0.4-1-0.9-2-1.4-3c-0.2-0.4,0-0.9,0.4-1.1c0.4-0.2,0.9,0,1.1,0.4c0.5,1,0.9,2,1.4,3.1c0.2,0.4,0,0.9-0.4,1.1
		C484.1,90.9,484,90.9,483.9,90.9z M379.5,89.3c-0.2,0-0.4-0.1-0.5-0.2c-0.4-0.3-0.4-0.8-0.1-1.2c0.7-0.9,1.4-1.7,2.1-2.6
		c0.3-0.4,0.8-0.4,1.2-0.1c0.4,0.3,0.4,0.8,0.1,1.2c-0.7,0.9-1.4,1.7-2.1,2.6C380,89.1,379.7,89.3,379.5,89.3z M481,84.9
		c-0.3,0-0.6-0.2-0.7-0.4c-0.5-1-1.1-1.9-1.7-2.8c-0.2-0.4-0.1-0.9,0.3-1.1c0.4-0.2,0.9-0.1,1.1,0.3c0.6,0.9,1.2,1.9,1.7,2.9
		c0.2,0.4,0.1,0.9-0.3,1.1C481.3,84.9,481.1,84.9,481,84.9z M383.7,84.1c-0.2,0-0.4-0.1-0.5-0.2c-0.3-0.3-0.4-0.8-0.1-1.2
		c0.7-0.8,1.5-1.7,2.2-2.5c0.3-0.3,0.8-0.4,1.2,0c0.3,0.3,0.4,0.8,0,1.2c-0.8,0.8-1.5,1.6-2.2,2.5C384.2,84,384,84.1,383.7,84.1z
		 M477.5,79.3c-0.3,0-0.5-0.1-0.7-0.4c-0.6-0.9-1.3-1.8-1.9-2.7c-0.3-0.4-0.2-0.9,0.2-1.2c0.4-0.3,0.9-0.2,1.2,0.2
		c0.7,0.9,1.3,1.8,2,2.7c0.3,0.4,0.2,0.9-0.2,1.2C477.8,79.2,477.7,79.3,477.5,79.3z M388.2,79.2c-0.2,0-0.4-0.1-0.6-0.2
		c-0.3-0.3-0.3-0.8,0-1.2c0.8-0.8,1.6-1.6,2.4-2.4c0.3-0.3,0.9-0.3,1.2,0c0.3,0.3,0.3,0.9,0,1.2c-0.8,0.8-1.6,1.6-2.3,2.3
		C388.7,79.1,388.5,79.2,388.2,79.2z M393,74.5c-0.2,0-0.5-0.1-0.6-0.3c-0.3-0.3-0.3-0.9,0.1-1.2c0.8-0.8,1.7-1.5,2.5-2.2
		c0.4-0.3,0.9-0.3,1.2,0.1c0.3,0.4,0.3,0.9-0.1,1.2c-0.8,0.7-1.7,1.4-2.5,2.2C393.4,74.5,393.2,74.5,393,74.5z M473.4,74
		c-0.2,0-0.5-0.1-0.6-0.3c-0.7-0.9-1.5-1.7-2.2-2.4c-0.3-0.3-0.3-0.9,0-1.2c0.3-0.3,0.9-0.3,1.2,0c0.8,0.8,1.5,1.6,2.3,2.5
		c0.3,0.4,0.3,0.9-0.1,1.2C473.8,73.9,473.6,74,473.4,74z M398.2,70.2c-0.2,0-0.5-0.1-0.7-0.3c-0.3-0.4-0.2-0.9,0.1-1.2
		c0.9-0.7,1.8-1.4,2.7-2c0.4-0.3,0.9-0.2,1.2,0.2c0.3,0.4,0.2,0.9-0.2,1.2c-0.9,0.6-1.8,1.3-2.6,2C398.5,70.2,398.3,70.2,398.2,70.2
		z M468.8,69.2c-0.2,0-0.4-0.1-0.6-0.2c-0.8-0.8-1.7-1.5-2.5-2.1c-0.4-0.3-0.4-0.8-0.1-1.2s0.8-0.4,1.2-0.1c0.9,0.7,1.7,1.4,2.6,2.2
		c0.3,0.3,0.4,0.8,0,1.2C469.3,69.1,469,69.2,468.8,69.2z M403.6,66.4c-0.3,0-0.5-0.1-0.7-0.4c-0.2-0.4-0.1-0.9,0.2-1.2
		c0.9-0.6,1.9-1.2,2.9-1.8c0.4-0.2,0.9-0.1,1.1,0.3c0.2,0.4,0.1,0.9-0.3,1.1c-0.9,0.6-1.9,1.1-2.8,1.7
		C403.9,66.3,403.7,66.4,403.6,66.4z M463.4,65.2c-0.1,0-0.3,0-0.4-0.1c-1-0.6-1.9-1.1-2.9-1.6c-0.4-0.2-0.6-0.7-0.4-1.1
		c0.2-0.4,0.7-0.6,1.1-0.4c1,0.5,2,1,3,1.6c0.4,0.2,0.5,0.7,0.3,1.1C464,65.1,463.7,65.2,463.4,65.2z M409.4,63
		c-0.3,0-0.6-0.2-0.7-0.5c-0.2-0.4-0.1-0.9,0.4-1.1c1-0.5,2-1,3-1.5c0.4-0.2,0.9,0,1.1,0.4c0.2,0.4,0,0.9-0.4,1.1
		c-1,0.5-2,0.9-3,1.4C409.6,63,409.5,63,409.4,63z M457.5,62.2c-0.1,0-0.2,0-0.3-0.1c-1-0.5-2-0.9-3-1.3c-0.4-0.2-0.6-0.7-0.5-1.1
		c0.2-0.4,0.7-0.6,1.1-0.5c1,0.4,2.1,0.9,3.1,1.3c0.4,0.2,0.6,0.7,0.4,1.1C458.1,62,457.8,62.2,457.5,62.2z M415.4,60.3
		c-0.3,0-0.7-0.2-0.8-0.5c-0.2-0.4,0-0.9,0.5-1.1c1.1-0.4,2.1-0.8,3.2-1.1c0.4-0.1,0.9,0.1,1,0.5c0.1,0.4-0.1,0.9-0.5,1
		c-1,0.3-2.1,0.7-3.1,1.1C415.6,60.3,415.5,60.3,415.4,60.3z M451.3,59.7c-0.1,0-0.2,0-0.3,0c-1.1-0.4-2.1-0.7-3.1-1
		c-0.4-0.1-0.7-0.6-0.6-1c0.1-0.4,0.6-0.7,1-0.6c1.1,0.3,2.1,0.6,3.2,1c0.4,0.1,0.7,0.6,0.5,1.1C452,59.5,451.7,59.7,451.3,59.7z
		 M421.8,58.3c-0.4,0-0.7-0.3-0.8-0.6c-0.1-0.4,0.2-0.9,0.6-1c1.1-0.3,2.2-0.5,3.3-0.7c0.4-0.1,0.9,0.2,1,0.7c0.1,0.5-0.2,0.9-0.7,1
		c-1.1,0.2-2.2,0.4-3.2,0.7C421.9,58.3,421.9,58.3,421.8,58.3z M444.9,57.9c-0.1,0-0.1,0-0.2,0c-1.1-0.2-2.2-0.4-3.2-0.6
		c-0.5-0.1-0.8-0.5-0.7-0.9c0.1-0.5,0.5-0.8,0.9-0.7c1.1,0.2,2.2,0.4,3.3,0.6c0.5,0.1,0.7,0.5,0.6,1
		C445.6,57.7,445.3,57.9,444.9,57.9z M428.3,57.1c-0.4,0-0.8-0.3-0.8-0.7c-0.1-0.5,0.3-0.9,0.7-0.9c1.1-0.1,2.3-0.2,3.4-0.3
		c0.4,0,0.9,0.3,0.9,0.8c0,0.5-0.3,0.9-0.8,0.9C430.6,56.9,429.5,56.9,428.3,57.1C428.4,57.1,428.4,57.1,428.3,57.1z M438.3,56.9
		C438.3,56.9,438.3,56.9,438.3,56.9c-1.2-0.1-2.3-0.2-3.3-0.2c-0.5,0-0.8-0.4-0.8-0.8c0-0.5,0.4-0.9,0.8-0.8c1.1,0,2.3,0.1,3.4,0.2
		c0.5,0,0.8,0.4,0.8,0.9C439.1,56.6,438.7,56.9,438.3,56.9z"/>
	
		<rect x="358.9" y="112.6" transform="matrix(-0.4199 0.9076 -0.9076 -0.4199 619.624 -164.5818)" class="st23" width="7" height="6.3"/>
	<g>
		<path class="st31" d="M434.3,80.9c-8.5,11.5-16.1,33.6-3.9,73.5c0.1,0.4,0.6,0.7,1.1,0.6c0.4-0.1,0.7-0.6,0.6-1.1
			c-11.9-39.2-4.6-60.8,3.7-72c2.8-3.8,6-6.7,9.1-8.8c-1,0-1.9,0-2.9,0C439.3,75.1,436.7,77.7,434.3,80.9z"/>
		<path class="st31" d="M481.8,96.1c-4.8-19.1-13.3-29.2-24.5-29.2c-2.9,0-6.5,1-10.2,2.9c1.2,0.1,2.3,0.1,3.5,0.2
			c2.5-1,4.8-1.5,6.8-1.5c13.1,0,19.7,15.2,22.9,28c9.5,37.5,1.7,102.7-13.1,110.8c-0.4,0.2-0.6,0.7-0.3,1.1
			c0.2,0.3,0.4,0.4,0.7,0.4c0.1,0,0.3,0,0.4-0.1C483.5,200.3,491.6,135,481.8,96.1z"/>
	</g>
	<g>
		<path class="st23" d="M276.6,345.8c3.2,1.5,6.2,2.5,9.5,2.5c5,0,8.8-2.8,8.8-7c0-10-18-7.1-18-19.6c0-7,5.8-10.1,11-10.1
			c3.1,0,6,0.7,9,2l-1.1,3c-2.7-1.1-5-1.8-7.9-1.8c-4.8,0-7.5,2.8-7.5,6.9c0,9.5,18,7.3,18,19.6c0,6.2-5.3,10.2-12.2,10.2
			c-3.5,0-6.9-1-10.5-2.8L276.6,345.8z"/>
		<path class="st23" d="M302.6,337.2c0-7.9,5.7-14.5,13.7-14.5c8,0,13.7,6.5,13.7,14.5s-5.7,14.4-13.7,14.4
			C308.4,351.6,302.6,345.1,302.6,337.2z M326.8,337.2c0-6.2-4.1-11.4-10.4-11.4c-6.3,0-10.4,5.2-10.4,11.4
			c0,6.2,4.2,11.3,10.4,11.3C322.7,348.5,326.8,343.4,326.8,337.2z"/>
		<path class="st23" d="M357.7,349.6c-3,1.4-6,1.9-9.1,1.9c-8.9,0-14.1-6.5-14.1-14.5c0-7.9,5.2-14.4,14.1-14.4
			c3.1,0,6.1,0.6,9.2,1.9l-1,2.9c-2.8-1.1-5.5-1.7-8.2-1.7c-7.1,0-10.9,5.4-10.9,11.3c0,5.9,3.8,11.4,10.8,11.4
			c2.8,0,5.4-0.8,8.1-1.8L357.7,349.6z"/>
		<path class="st23" d="M366,312c1.3,0,2.3,0.9,2.3,2.2s-1.1,2.3-2.3,2.3c-1.4,0-2.3-1-2.3-2.3S364.6,312,366,312z M364.4,323.4h3.2
			v27.4h-3.2V323.4z"/>
		<path class="st23" d="M397.2,349.9c-2.9,1.2-5.8,1.7-8.8,1.7c-8.5,0-13.7-6.5-13.7-14.4c0-8,5.2-14.5,12.7-14.5
			c8.6,0,12.1,6.7,12.1,14.3h-21.7c0,6.5,3.8,11.5,10.5,11.5c2.8,0,5.4-0.6,8.1-1.7L397.2,349.9z M396.2,334.2
			c-0.8-5.8-4.1-8.4-8.8-8.4c-4.3,0-8.2,2.7-9.3,8.4H396.2z"/>
		<path class="st23" d="M407.4,326.2h-3.9v-2.8h3.9v-7l3.2-1.4v8.4h6.8v2.8h-6.8v16.6c0,3.7,1.6,5.7,5.1,5.7c1.1,0,2.2-0.2,3.2-0.5
			l0.7,3c-1.4,0.4-2.8,0.6-4.2,0.6c-4.6,0-8-2.8-8-8.4V326.2z"/>
		<path class="st23" d="M426.5,360.6c2.1,0,3.5-1.2,4.5-4.1l1.8-5.7h-1.1l-9.6-27.4h3.4l7,20.2c0.4,1.2,0.9,3,1.4,4.5
			c0.4-1.6,0.9-3.3,1.3-4.5l6.5-20.2h3.4l-11.2,34.5c-1.3,3.9-4.1,5.8-7.3,5.8c-1.7,0-3.4-0.3-5.1-1.1l0.9-2.9
			C423.7,360.3,425.1,360.6,426.5,360.6z"/>
	</g>
	<g>
		<g>
			<path class="st23" d="M111.5,148.6h-6.4c-1.5,0-7.5,0.2-7.5,0.2l-0.4-0.5c0.2-7.2,0.4-14.4,0.4-21.6v-5.4c0-9-0.1-18.1-0.7-27.1
				l0.4-0.5h5.4c2.6,0,7.1-0.2,8.7-0.2l0.3,0.5c-0.2,10.6-0.4,21.4-0.4,32.1c0,7.4,0.2,14.8,0.5,22.1L111.5,148.6z"/>
			<path class="st23" d="M158.9,138.7c-0.2,3.2-0.4,6.5-0.5,9.5l-0.6,0.5c-11.3,0-22.8,0.1-34.2,0.2l-0.4-0.5
				c0.3-7.1,0.4-14.3,0.4-21.5v-16.1c0-5.5-0.1-11-0.5-16.4l0.5-0.5c8.5,0,29-0.2,34.1-0.2l0.4,0.5c-0.2,3.2-0.5,6-0.5,9l-0.5,0.5
				c-6.7-0.2-13.3-0.2-19.9-0.2c0,1.5-0.1,3.6-0.1,5.7c0,2.5,0,5,0.1,6.6c6.3,0,12.5-0.1,18.7-0.3l0.5,0.5c-0.2,3-0.4,5.8-0.5,8.8
				l-0.5,0.5c-11.4-0.1-18.2-0.1-18.2-0.1c0,4.6,0.1,9.1,0.2,13.6c7.1,0,14.2-0.2,21.3-0.5L158.9,138.7z"/>
			<path class="st23" d="M202.6,138.7c-0.2,3.2-0.4,6.5-0.5,9.5l-0.6,0.5c-11.3,0-22.8,0.1-34.2,0.2l-0.4-0.5
				c0.3-7.1,0.4-14.3,0.4-21.5v-16.1c0-5.5-0.1-11-0.5-16.4l0.5-0.5c8.5,0,29-0.2,34.1-0.2l0.4,0.5c-0.2,3.2-0.5,6-0.5,9l-0.5,0.5
				c-6.7-0.2-13.3-0.2-19.9-0.2c0,1.5-0.1,3.6-0.1,5.7c0,2.5,0,5,0.1,6.6c6.3,0,12.5-0.1,18.7-0.3l0.5,0.5c-0.2,3-0.4,5.8-0.5,8.8
				l-0.5,0.5c-11.4-0.1-18.2-0.1-18.2-0.1c0,4.6,0.1,9.1,0.2,13.6c7.1,0,14.2-0.2,21.3-0.5L202.6,138.7z"/>
			<path class="st23" d="M246.2,138.7c-0.2,3.2-0.4,6.5-0.5,9.5l-0.6,0.5c-11.3,0-22.8,0.1-34.2,0.2l-0.4-0.5
				c0.3-7.1,0.4-14.3,0.4-21.5v-16.1c0-5.5-0.1-11-0.5-16.4l0.5-0.5c8.5,0,29-0.2,34.1-0.2l0.4,0.5c-0.2,3.2-0.5,6-0.5,9l-0.5,0.5
				c-6.7-0.2-13.3-0.2-19.9-0.2c0,1.5-0.1,3.6-0.1,5.7c0,2.5,0,5,0.1,6.6c6.3,0,12.5-0.1,18.7-0.3l0.5,0.5c-0.2,3-0.4,5.8-0.5,8.8
				l-0.5,0.5c-11.4-0.1-18.2-0.1-18.2-0.1c0,4.6,0.1,9.1,0.2,13.6c7.1,0,14.2-0.2,21.3-0.5L246.2,138.7z"/>
		</g>
	</g>
	<g>
		<g>
			<path class="st31" d="M97.5,211.9c5.3,2.6,10.4,4.1,15.9,4.1c6.4,0,10.3-3.4,10.3-8.5c0-12.6-27.4-9.7-27.4-30.5
				c0-11.2,9.4-17.8,20.1-17.8c5.7,0,10.7,1.4,16.2,3.8l-3.1,8.7c-4.5-1.8-8.6-2.9-13.1-2.9c-5.9,0-8.8,3.4-8.8,8.3
				c0,12.1,27.4,10.2,27.4,30.5c0,10.9-9.5,18-21.6,18c-6.4,0-12.5-1.6-18.9-4.8L97.5,211.9z"/>
			<path class="st31" d="M147.5,157.5c3.2,0,6.4,2.5,6.4,6s-2.9,6.2-6.4,6.2c-3.6,0-6.2-2.7-6.2-6.2S144.2,157.5,147.5,157.5z
				 M142.3,177.8h10.3v46.5h-10.3V177.8z"/>
			<path class="st31" d="M168,233.4c4.6,2.1,9.1,3.1,13.9,3.1c8.7,0,13-5.8,13-13.9v-4.3c-3.3,3.8-7.9,6-13.7,6
				c-13.5,0-21.7-11.2-21.7-23.9s8.4-23.9,21.7-23.9c6,0,10.8,2.4,14.1,6.4l0.6-5.2l9.4,0.9v45.1c0,12.9-9.6,21.9-23.3,21.9
				c-5.8,0-11.2-1.1-17-4.1L168,233.4z M195.6,200.4c0-8.9-5.8-14.7-13.2-14.7c-7.6,0-12.3,6.4-12.3,14.7c0,8.3,4.4,14.7,12.3,14.7
				C189.3,215.2,195.6,209.9,195.6,200.4z"/>
			<path class="st31" d="M214.2,178.7l8.8-0.9l0.9,6c3.3-4.8,8.4-7.2,14.7-7.2c9.3,0,15.4,6.8,15.4,17.8v29.9h-10.3v-28.6
				c0-5.8-2.1-10-7.2-10c-7.5,0-12.1,6.4-12.1,17.1v21.5h-10.3V178.7z"/>
			<path class="st31" d="M296.4,218.8c-3.3,4.1-8.1,6.7-14.2,6.7c-13.5,0-21.7-11.8-21.7-24.5c0-12.9,8.7-24.4,21.7-24.4
				c5.7,0,10.3,2.3,13.7,6.1v-4.9l10.3,0.9v45.6h-8.9L296.4,218.8z M296.6,200.9c0-9.1-5.8-15.2-13.2-15.2
				c-7.5,0-12.3,6.7-12.3,15.3c0,8.2,4.4,15.4,12.3,15.4C290.3,216.4,296.6,210.7,296.6,200.9z"/>
			<path class="st31" d="M315.1,158.2l10.3-2.2v56.4c0,2.9,1,4.1,3.7,4.1l-1,8.9c-7.8,0-13-2.9-13-11.7V158.2z"/>
			<path class="st31" d="M98,236.3h18.5c12.5,0,21.7,7.1,21.7,19.7c0,12.6-9.3,19.8-21.7,19.8h-7.7v24.3H98V236.3z M115.4,266.6
				c9.1,0,12-4.2,12-10.6c0-6.5-3.4-10.3-11.7-10.3h-7v20.9H115.4z"/>
			<path class="st31" d="M144.4,254.5l8.8-0.9l1.1,6.6c3-4.7,7.7-7.8,14.9-7.8v9.1c-9.4,0-14.6,7.4-14.6,18v20.6h-10.3V254.5z"/>
			<path class="st31" d="M171.3,276.9c0-13.2,9.8-24.5,24-24.5s24,11.3,24,24.5c0,13.2-9.6,24.4-24,24.4
				C180.8,301.3,171.3,290.1,171.3,276.9z M208.5,276.9c0-9.1-6-15.4-13.3-15.4s-13.3,6.3-13.3,15.4c0,9,5.9,15.3,13.3,15.3
				C202.7,292.2,208.5,285.9,208.5,276.9z"/>
			<path class="st31" d="M264.4,298c-5.3,2.6-10.5,3.3-15.8,3.3c-15.4,0-24.7-11.2-24.7-24.5s9.2-24.4,24.7-24.4
				c5.4,0,10.6,1.2,15.9,3.5l-2.9,8.3c-4.2-1.7-8.5-2.7-12.8-2.7c-9,0-14.2,7.1-14.2,15.3c0,8.3,5.2,15.4,14.2,15.4
				c4.3,0,8.5-1.1,12.8-2.9L264.4,298z"/>
			<path class="st31" d="M308.7,298c-5.3,2.3-10.1,3.3-15.9,3.3c-15.6,0-24.3-11.1-24.3-24.4c0-13.3,8.3-24.5,21.9-24.5
				c14.3,0,21.4,11.1,21.4,26.2h-33c0.6,7.5,4.8,13.6,14.3,13.6c5,0,9.1-1.1,13.6-2.9L308.7,298z M301.3,271.5c-1.5-8-6-10-11-10
				c-4.9,0-9.7,2.6-11.2,10H301.3z"/>
			<path class="st31" d="M317.4,289.1c4.1,1.8,7.7,3.2,11.7,3.2c3.9,0,6.4-2.1,6.4-5.1c0-7.6-19.2-5.9-19.2-21.2
				c0-8.5,7.2-13.6,15.5-13.6c4.5,0,8.6,1.1,12.9,3l-2.9,8.2c-3.1-1.4-6-2.2-9.2-2.2c-3.9,0-5.5,1.8-5.5,4.6
				c0,7.3,19.2,6.6,19.2,21.4c0,8.3-7.5,13.9-16.7,13.9c-4.9,0-9.6-1.1-14.6-3.7L317.4,289.1z"/>
			<path class="st31" d="M351.4,289.1c4.1,1.8,7.7,3.2,11.7,3.2c3.9,0,6.4-2.1,6.4-5.1c0-7.6-19.2-5.9-19.2-21.2
				c0-8.5,7.2-13.6,15.5-13.6c4.5,0,8.6,1.1,12.9,3l-2.9,8.2c-3.1-1.4-6-2.2-9.2-2.2c-3.9,0-5.5,1.8-5.5,4.6
				c0,7.3,19.2,6.6,19.2,21.4c0,8.3-7.5,13.9-16.7,13.9c-4.9,0-9.6-1.1-14.6-3.7L351.4,289.1z"/>
			<path class="st31" d="M391.3,233.3c3.2,0,6.4,2.5,6.4,6s-2.9,6.2-6.4,6.2c-3.6,0-6.2-2.7-6.2-6.2S388,233.3,391.3,233.3z
				 M386.1,253.6h10.3v46.5h-10.3V253.6z"/>
			<path class="st31" d="M405.3,254.5l8.8-0.9l0.9,6c3.3-4.8,8.4-7.2,14.7-7.2c9.3,0,15.4,6.8,15.4,17.8v29.9h-10.3v-28.6
				c0-5.8-2.1-10-7.2-10c-7.5,0-12.1,6.4-12.1,17.1v21.5h-10.3V254.5z"/>
			<path class="st31" d="M460.1,309.2c4.6,2.1,9.1,3.1,13.9,3.1c8.7,0,13-5.8,13-13.9v-4.3c-3.3,3.8-7.9,6-13.7,6
				c-13.5,0-21.7-11.2-21.7-23.9s8.4-23.9,21.7-23.9c6,0,10.8,2.4,14.1,6.4l0.6-5.2l9.4,0.9v45.1c0,12.9-9.6,21.9-23.3,21.9
				c-5.8,0-11.2-1.1-17-4.1L460.1,309.2z M487.6,276.3c0-8.9-5.8-14.7-13.2-14.7c-7.6,0-12.3,6.4-12.3,14.7
				c0,8.3,4.4,14.7,12.3,14.7C481.4,291,487.6,285.8,487.6,276.3z"/>
		</g>
	</g>
	<path class="st32" d="M460.2,182.4c-2.6,0-5.3-0.1-7.9-0.2c-24.2-1.3-53.6-7.8-75.3-22.1c8,29.3,34.8,50.9,66.6,50.9
		c26.7,0,49.9-15.3,61.4-37.5c-2.3,1.2-4.9,2.4-7.8,3.4C486.9,180.5,474,182.4,460.2,182.4z"/>
	<path class="st32" d="M513.9,158.9c-0.1,0.6-0.3,1.2-0.4,1.7C513.6,160,513.8,159.5,513.9,158.9z"/>
	
		<linearGradient id="SVGID_00000163057660422011847390000004386698397263421119_" gradientUnits="userSpaceOnUse" x1="357.8491" y1="160.3251" x2="517.3119" y2="160.3251">
		<stop  offset="0" style="stop-color:#76BC43"/>
		<stop  offset="5.305592e-02" style="stop-color:#61AC51"/>
		<stop  offset="0.1567" style="stop-color:#3E9269"/>
		<stop  offset="0.262" style="stop-color:#237D7C"/>
		<stop  offset="0.3682" style="stop-color:#0F6F89"/>
		<stop  offset="0.4759" style="stop-color:#046691"/>
		<stop  offset="0.5873" style="stop-color:#006394"/>
		<stop  offset="1" style="stop-color:#006394"/>
	</linearGradient>
	<path style="fill:url(#SVGID_00000163057660422011847390000004386698397263421119_);" d="M517.3,158.2c0.1-2.6-0.6-5.2-2-7.6
		c-0.3,2.8-0.8,5.6-1.5,8.3c-0.1,0.6-0.2,1.2-0.4,1.7c-0.9,3.2-1.9,6.4-3.2,9.4C514.6,166.6,517.1,162.5,517.3,158.2z"/>
	
		<linearGradient id="SVGID_00000030469969829786802930000009798574840505659012_" gradientUnits="userSpaceOnUse" x1="357.8491" y1="148.7576" x2="517.3119" y2="148.7576">
		<stop  offset="0" style="stop-color:#78BE20"/>
		<stop  offset="6.368811e-02" style="stop-color:#5FAB3A"/>
		<stop  offset="0.1653" style="stop-color:#3D915D"/>
		<stop  offset="0.2685" style="stop-color:#227C78"/>
		<stop  offset="0.3726" style="stop-color:#0F6E8C"/>
		<stop  offset="0.4781" style="stop-color:#046597"/>
		<stop  offset="0.5873" style="stop-color:#00629B"/>
		<stop  offset="1" style="stop-color:#00629B"/>
	</linearGradient>
	<path style="fill:url(#SVGID_00000030469969829786802930000009798574840505659012_);" d="M360.9,141c-0.6-0.7-1.6-0.9-2.4-0.3
		c-0.7,0.6-0.9,1.6-0.3,2.4c4.1,5.3,9,10,14.6,14.1c-0.3-1.6-0.6-3.2-0.9-4.9C367.8,148.9,364,145.1,360.9,141z"/>
	
		<linearGradient id="SVGID_00000167380544901669263690000006012513656977144981_" gradientUnits="userSpaceOnUse" x1="357.8491" y1="168.8166" x2="517.3119" y2="168.8166">
		<stop  offset="0" style="stop-color:#78BE20"/>
		<stop  offset="6.368811e-02" style="stop-color:#5FAB3A"/>
		<stop  offset="0.1653" style="stop-color:#3D915D"/>
		<stop  offset="0.2685" style="stop-color:#227C78"/>
		<stop  offset="0.3726" style="stop-color:#0F6E8C"/>
		<stop  offset="0.4781" style="stop-color:#046597"/>
		<stop  offset="0.5873" style="stop-color:#00629B"/>
		<stop  offset="1" style="stop-color:#00629B"/>
	</linearGradient>
	<path style="fill:url(#SVGID_00000167380544901669263690000006012513656977144981_);" d="M452.4,178.8
		c-24.8-1.3-55.3-8.3-76.6-23.6c0.3,1.6,0.7,3.2,1.1,4.8c21.7,14.3,51.2,20.9,75.3,22.1c2.7,0.1,5.3,0.2,7.9,0.2
		c13.8,0,26.7-1.9,36.9-5.5c2.9-1,5.5-2.2,7.8-3.4c0.9-1.8,1.8-3.7,2.6-5.6c-2.9,2.2-6.8,4.1-11.5,5.8
		C484.2,177.9,468.8,179.7,452.4,178.8z"/>
	
		<linearGradient id="SVGID_00000060741273863490181540000004622812072490236584_" gradientUnits="userSpaceOnUse" x1="357.8491" y1="156.1644" x2="517.3119" y2="156.1644">
		<stop  offset="0" style="stop-color:#76BC43"/>
		<stop  offset="5.305592e-02" style="stop-color:#61AC51"/>
		<stop  offset="0.1567" style="stop-color:#3E9269"/>
		<stop  offset="0.262" style="stop-color:#237D7C"/>
		<stop  offset="0.3682" style="stop-color:#0F6F89"/>
		<stop  offset="0.4759" style="stop-color:#046691"/>
		<stop  offset="0.5873" style="stop-color:#006394"/>
		<stop  offset="1" style="stop-color:#006394"/>
	</linearGradient>
	<path style="fill:url(#SVGID_00000060741273863490181540000004622812072490236584_);" d="M375.8,155.2c-1.3-1-2.6-2-3.9-3
		c0.2,1.7,0.5,3.3,0.9,4.9c1.4,1,2.7,2,4.2,2.9C376.5,158.5,376.1,156.9,375.8,155.2z"/>
	
		<linearGradient id="SVGID_00000093862247974477265460000002204587838749853617_" gradientUnits="userSpaceOnUse" x1="357.8491" y1="167.0415" x2="517.3119" y2="167.0415">
		<stop  offset="0" style="stop-color:#76BC43"/>
		<stop  offset="5.305592e-02" style="stop-color:#61AC51"/>
		<stop  offset="0.1567" style="stop-color:#3E9269"/>
		<stop  offset="0.262" style="stop-color:#237D7C"/>
		<stop  offset="0.3682" style="stop-color:#0F6F89"/>
		<stop  offset="0.4759" style="stop-color:#046691"/>
		<stop  offset="0.5873" style="stop-color:#006394"/>
		<stop  offset="1" style="stop-color:#006394"/>
	</linearGradient>
	<path style="fill:url(#SVGID_00000093862247974477265460000002204587838749853617_);" d="M507.4,167.9c-0.8,1.9-1.6,3.8-2.6,5.6
		c2-1.1,3.8-2.2,5.3-3.4c1.3-3,2.4-6.2,3.2-9.4C512.5,163.2,510.5,165.7,507.4,167.9z"/>
	<g>
		<path class="st23" d="M450.2,324h-1.5v-0.8h3.9v0.8h-1.5v4.8h-0.9V324z"/>
		<path class="st23" d="M453.6,323.2h1.1l1.1,3.6c0.1,0.3,0.2,0.7,0.3,1.1c0.1-0.4,0.2-0.8,0.3-1.1l1.1-3.6h1.1l0.8,5.6h-0.9
			l-0.4-3.2c0-0.3-0.1-0.6-0.1-1c-0.1,0.4-0.2,0.7-0.3,1l-1,3.2h-1l-1-3.2c-0.1-0.3-0.2-0.6-0.3-1c0,0.4,0,0.7-0.1,1l-0.4,3.2h-0.9
			L453.6,323.2z"/>
	</g>
	
		<linearGradient id="SVGID_00000111184337704397422340000010937005281548696492_" gradientUnits="userSpaceOnUse" x1="54.7364" y1="229.1131" x2="348.1733" y2="229.1131">
		<stop  offset="0" style="stop-color:#78BE20"/>
		<stop  offset="0.1201" style="stop-color:#75BC23"/>
		<stop  offset="0.2172" style="stop-color:#6BB42D"/>
		<stop  offset="0.3063" style="stop-color:#5AA73E"/>
		<stop  offset="0.3906" style="stop-color:#439556"/>
		<stop  offset="0.4707" style="stop-color:#257F75"/>
		<stop  offset="0.5481" style="stop-color:#01639A"/>
		<stop  offset="0.55" style="stop-color:#00629B"/>
		<stop  offset="0.9605" style="stop-color:#00629B"/>
		<stop  offset="1" style="stop-color:#00629B"/>
	</linearGradient>
	<path style="fill:url(#SVGID_00000111184337704397422340000010937005281548696492_);" d="M107.9,399.5c-18.6,0-32.7-5-41.9-14.8
		c-12.3-13.1-11.2-30-11.2-30.7l0-254.9C53.8,80,61.8,70,68.6,65c7.5-5.4,15.1-6.2,15.4-6.2l0.1,0h264v2.7H84.2
		c-1.9,0.2-28.6,3.8-26.7,37.6l0,255.1c0,0.3-1.1,16.5,10.5,28.8c8.7,9.2,22.1,13.9,39.9,13.9c0.4,0,0.8,0,1.2,0h20v2.7h-20
		C108.8,399.5,108.3,399.5,107.9,399.5z"/>
	<rect x="341.1" y="56.3" class="st39" width="7.7" height="7.7"/>
</g>
</svg>
